<svg version="1.1" xmlns="http://www.w3.org/2000/svg" xmlns:xlink="http://www.w3.org/1999/xlink" x="0px" y="0px" viewBox="0 0 256 256" enable-background="new 0 0 256 256" xml:space="preserve">
<metadata> Svg Vector Icons : http://www.onlinewebfonts.com/icon </metadata>
<g><g><path fill="#808080" d="M219.4,51c16.4,20.7,26.4,47.1,26.6,75.8c-3.9-0.8-42.9-9-82.2-3.9c-0.8-2.1-1.7-4.2-2.5-6.3c-2.5-5.9-5.1-11.8-7.8-17.6C197.1,80.7,216.9,54.5,219.4,51z M128,6.3c30,0,57.4,11.6,78.2,30.7c-2.1,3.1-19.9,27.7-61.9,44c-19.3-36.6-40.8-66.8-44-71.3C109.2,7.4,118.5,6.3,128,6.3z M77.8,17.9c3.1,4.4,24.2,34.6,43.7,70.4c-55.2,15.1-103.8,14.9-109.1,14.8C20.1,65.3,44.8,33.9,77.8,17.9z M10,128c0-1.2,0-2.5,0-3.7c5.2,0.1,62.4,0.9,121.3-17.3c3.4,6.8,6.6,13.7,9.6,20.7c-1.6,0.4-3.1,0.9-4.6,1.4c-60.9,20.3-93.3,75.6-95.9,80.3C21.5,187.8,10,159.3,10,128z M128,249.7c-27.3,0-52.4-9.6-72.4-25.7c2.1-4.5,26-52.1,92.6-76c0.2-0.1,0.5-0.2,0.8-0.3c16.6,44.4,23.4,81.6,25.2,92.3C159.9,246.3,144.3,249.7,128,249.7z M194,228.9c-1.2-7.4-7.5-43-22.9-86.8c37-6.1,69.5,3.9,73.5,5.2C239.3,181.2,220.4,210.5,194,228.9z"/></g></g>
</svg>