<svg version="1.2" xmlns="http://www.w3.org/2000/svg" viewBox="0 0 48 48" width="25" height="25">
	<title>icons8-dribbble-svg</title>
	<style>
		.s0 { fill: #808080 } 
	</style>
	<path id="Layer" class="s0" d="m34.3 26q-2.2 0-4.2 0.3c1.9 4.8 3.3 9.7 4.2 14.8 4.7-2.8 8.2-7.6 9.3-13.3-2.9-1.1-6-1.8-9.3-1.8zm-8.3-1.8q-0.8-1.8-1.7-3.5c-4.1 1.5-8.6 2.3-13.3 2.3q-3.5 0-6.9-0.6-0.1 0.8-0.1 1.6c0 5.4 2.2 10.3 5.7 13.9 3.4-6.5 9.2-11.4 16.3-13.7zm1.1-4.7q1 2 1.9 4 2.5-0.5 5.3-0.5c3.4 0 6.6 0.6 9.7 1.8q0-0.4 0-0.8c0-5-1.8-9.5-4.9-13-3.4 3.5-7.5 6.4-12 8.5zm-15.1 20.5c3.3 2.5 7.5 4 12 4 2.6 0 5.2-0.5 7.5-1.5-0.9-5.3-2.4-10.5-4.3-15.5-6.7 2-12.2 6.8-15.2 13zm25-31.2c-3.5-3-8-4.8-13-4.8-2.2 0-4.3 0.4-6.2 1q4.5 5.5 7.9 11.8c4.3-1.9 8.1-4.6 11.3-8zm-32.4 10.6q3.1 0.6 6.4 0.6c4.2 0 8.2-0.7 11.9-2q-3.5-6.3-8-11.8c-5.2 2.7-9 7.5-10.3 13.2z"/>
</svg>